<?xml version="1.0" encoding="UTF-8" standalone="no"?>
<!-- Generator: Adobe Illustrator 17.0.1, SVG Export Plug-In . SVG Version: 6.00 Build 0)  -->

<svg
   xmlns:osb="http://www.openswatchbook.org/uri/2009/osb"
   xmlns:dc="http://purl.org/dc/elements/1.1/"
   xmlns:cc="http://creativecommons.org/ns#"
   xmlns:rdf="http://www.w3.org/1999/02/22-rdf-syntax-ns#"
   xmlns:svg="http://www.w3.org/2000/svg"
   xmlns="http://www.w3.org/2000/svg"
   xmlns:sodipodi="http://sodipodi.sourceforge.net/DTD/sodipodi-0.dtd"
   xmlns:inkscape="http://www.inkscape.org/namespaces/inkscape"
   version="1.1"
   id="Layer_1"
   x="0px"
   y="0px"
   width="185px"
   height="188px"
   viewBox="0 0 185 188"
   enable-background="new 0 0 185 188"
   xml:space="preserve"
   inkscape:version="0.91 r13725"
   sodipodi:docname="logos.svg"><metadata
     id="metadata4623"><rdf:RDF><cc:Work
         rdf:about=""><dc:format>image/svg+xml</dc:format><dc:type
           rdf:resource="http://purl.org/dc/dcmitype/StillImage" /><dc:title></dc:title></cc:Work></rdf:RDF></metadata><defs
     id="defs4621"><linearGradient
       id="linearGradient5709"
       osb:paint="solid"><stop
         style="stop-color:#000000;stop-opacity:1;"
         offset="0"
         id="stop5711" /></linearGradient><linearGradient
       id="linearGradient4258"
       osb:paint="solid"><stop
         style="stop-color:#000000;stop-opacity:1;"
         offset="0"
         id="stop4260" /></linearGradient></defs><sodipodi:namedview
     pagecolor="#ffffff"
     bordercolor="#666666"
     borderopacity="1"
     objecttolerance="10"
     gridtolerance="10"
     guidetolerance="10"
     inkscape:pageopacity="0"
     inkscape:pageshadow="2"
     inkscape:window-width="1440"
     inkscape:window-height="815"
     id="namedview4619"
     showgrid="false"
     inkscape:zoom="3.2765957"
     inkscape:cx="92.5"
     inkscape:cy="94"
     inkscape:window-x="0"
     inkscape:window-y="1"
     inkscape:window-maximized="1"
     inkscape:current-layer="Layer_1" /><g
     id="g4391"
     transform="matrix(0,1,-0.69989177,0,44.728154,12.088621)"><g
       id="g4409" /><radialGradient
       id="SVGID_1_"
       cx="-310.58301"
       cy="-60.055"
       r="20.113701"
       gradientTransform="matrix(0.498,0,0,0.498,172.2891,79.7388)"
       gradientUnits="userSpaceOnUse"><stop
         offset="0"
         style="stop-color:#FFCF4F"
         id="stop4440" /><stop
         offset="1"
         style="stop-color:#F4C236"
         id="stop4442" /></radialGradient><path
       d="m 8.91,61 6.791,0 c 1.607,0 3.604,-1.128 4.432,-2.511 l 5.72,-9.519 c 0.677,-1.396 0.653,-3.426 -0.119,-4.713 L 22.356,38.665 8.91,61 Z"
       id="path4444"
       style="fill:#abd9e9"
       inkscape:connector-curvature="0" /><radialGradient
       id="SVGID_2_"
       cx="-322.6347"
       cy="-70.269501"
       r="27.658199"
       gradientTransform="matrix(0.498,0,0,0.498,172.2891,79.7388)"
       gradientUnits="userSpaceOnUse"><stop
         offset="0"
         style="stop-color:#08A960"
         id="stop4447" /><stop
         offset="1"
         style="stop-color:#07914B"
         id="stop4449" /></radialGradient><path
       d="M 16.209,33.514 1.108,58.763 C 0.524,60.011 1.131,61 2.629,61 L 8.91,61 22.356,38.665 16.21,28.492 c 0.829,1.378 0.829,3.638 -0.001,5.022"
       id="path4451"
       style="fill:#fdae61;stroke:none;stroke-opacity:1"
       inkscape:connector-curvature="0" /><radialGradient
       id="SVGID_3_"
       cx="-313.18311"
       cy="-109.9511"
       r="40.540001"
       gradientTransform="matrix(0.498,0,0,0.498,172.2891,79.7388)"
       gradientUnits="userSpaceOnUse"><stop
         offset="0"
         style="stop-color:#567FC0"
         id="stop4454" /><stop
         offset="1"
         style="stop-color:#557FC0"
         id="stop4456" /></radialGradient><path
       d="M 2.629,1 C 1.015,1 0.375,2.133 1.205,3.511 l 24.529,40.745 c 0.772,1.288 0.795,3.317 0.119,4.713 L 31.816,39.044 8.914,1 2.629,1 Z"
       id="path4458"
       style="fill:#d73027"
       inkscape:connector-curvature="0" /><radialGradient
       id="SVGID_4_"
       cx="-301.11911"
       cy="-119.9164"
       r="33.058399"
       gradientTransform="matrix(0.498,0,0,0.498,172.2891,79.7388)"
       gradientUnits="userSpaceOnUse"><stop
         offset="0"
         style="stop-color:#E14C40"
         id="stop4461" /><stop
         offset="1"
         style="stop-color:#CD392D"
         id="stop4463" /></radialGradient><path
       d="m 8.914,1 22.903,38.045 3.321,-5.53 c 0.83,-1.385 0.83,-3.645 0,-5.023 L 20.133,3.511 C 19.305,2.133 17.308,1 15.701,1 L 8.914,1 Z"
       id="path4465"
       style="fill:#4575b4"
       inkscape:connector-curvature="0" /></g><g
     id="g4467"
     transform="matrix(0,1,-0.68971861,0,88.170347,76.614502)"><g
       id="g4469" /><g
       id="g4485" /><g
       id="g4507" /><radialGradient
       id="SVGID_5_"
       cx="-310.58301"
       cy="66.4552"
       r="20.113701"
       gradientTransform="matrix(0.498,0,0,0.498,172.2891,79.7388)"
       gradientUnits="userSpaceOnUse"><stop
         offset="0"
         style="stop-color:#CCCCCC"
         id="stop4516" /><stop
         offset="1"
         style="stop-color:#C0C0C0"
         id="stop4518" /></radialGradient><path
       d="m 8.91,124 6.791,0 c 1.607,0 3.604,-1.128 4.432,-2.511 l 5.72,-9.519 c 0.677,-1.396 0.653,-3.426 -0.119,-4.713 L 22.356,101.665 8.91,124 Z"
       id="path4520"
       style="fill:url(#SVGID_5_)"
       inkscape:connector-curvature="0" /><radialGradient
       id="SVGID_6_"
       cx="-322.6347"
       cy="56.2407"
       r="27.658199"
       gradientTransform="matrix(0.498,0,0,0.498,172.2891,79.7388)"
       gradientUnits="userSpaceOnUse"><stop
         offset="0"
         style="stop-color:#A0A0A0"
         id="stop4523" /><stop
         offset="1"
         style="stop-color:#7B7B7B"
         id="stop4525" /></radialGradient><path
       d="M 16.209,96.514 1.108,121.763 C 0.524,123.011 1.131,124 2.629,124 L 8.91,124 22.356,101.665 16.21,91.492 c 0.829,1.378 0.829,3.638 -0.001,5.022"
       id="path4527"
       style="fill:url(#SVGID_6_)"
       inkscape:connector-curvature="0" /><radialGradient
       id="SVGID_7_"
       cx="-313.18311"
       cy="16.559"
       r="40.540001"
       gradientTransform="matrix(0.498,0,0,0.498,172.2891,79.7388)"
       gradientUnits="userSpaceOnUse"><stop
         offset="0"
         style="stop-color:#848484"
         id="stop4530" /><stop
         offset="1"
         style="stop-color:#838383"
         id="stop4532" /></radialGradient><path
       d="m 2.629,64 c -1.613,0 -2.254,1.133 -1.424,2.511 l 24.529,40.745 c 0.772,1.288 0.795,3.317 0.119,4.713 L 31.816,102.044 8.914,64 2.629,64 Z"
       id="path4534"
       style="fill:url(#SVGID_7_)"
       inkscape:connector-curvature="0" /><radialGradient
       id="SVGID_8_"
       cx="-301.11911"
       cy="6.5938001"
       r="33.058399"
       gradientTransform="matrix(0.498,0,0,0.498,172.2891,79.7388)"
       gradientUnits="userSpaceOnUse"><stop
         offset="0"
         style="stop-color:#626262"
         id="stop4537" /><stop
         offset="1"
         style="stop-color:#474747"
         id="stop4539" /></radialGradient><path
       d="m 8.914,64 22.903,38.045 3.321,-5.53 c 0.83,-1.385 0.83,-3.645 0,-5.023 L 20.134,66.512 C 19.305,65.133 17.308,64 15.701,64 l -6.787,0 z"
       id="path4541"
       style="fill:url(#SVGID_8_)"
       inkscape:connector-curvature="0" /></g><g
     id="g4543"
     transform="matrix(0,1,-0.68971861,0,131.17023,138.54092)"><g
       id="g4545" /><g
       id="g4561" /><g
       id="g4583" /><radialGradient
       id="SVGID_9_"
       cx="-310.26501"
       cy="192.9653"
       r="20.113701"
       gradientTransform="matrix(0.498,0,0,0.498,172.2891,79.7388)"
       gradientUnits="userSpaceOnUse"><stop
         offset="0"
         style="stop-color:#FFCF4F"
         id="stop4592" /><stop
         offset="1"
         style="stop-color:#F4C236"
         id="stop4594" /></radialGradient><path
       d="m 9.068,187 6.791,0 c 1.607,0 3.604,-1.128 4.432,-2.511 l 5.72,-9.519 c 0.677,-1.396 0.653,-3.426 -0.119,-4.713 L 22.514,164.665 9.068,187 Z"
       id="path4596"
       style="fill:#abd9e9"
       inkscape:connector-curvature="0" /><radialGradient
       id="SVGID_10_"
       cx="-322.31671"
       cy="182.75079"
       r="27.658199"
       gradientTransform="matrix(0.498,0,0,0.498,172.2891,79.7388)"
       gradientUnits="userSpaceOnUse"><stop
         offset="0"
         style="stop-color:#08A960"
         id="stop4599" /><stop
         offset="1"
         style="stop-color:#07914B"
         id="stop4601" /></radialGradient><path
       d="M 16.368,159.514 1.266,184.763 C 0.683,186.011 1.289,187 2.787,187 l 6.281,0 13.446,-22.335 -6.146,-10.173 c 0.829,1.378 0.829,3.638 0,5.022"
       id="path4603"
       style="fill:#fdae61"
       inkscape:connector-curvature="0" /><radialGradient
       id="SVGID_11_"
       cx="-312.86511"
       cy="143.06911"
       r="40.540001"
       gradientTransform="matrix(0.498,0,0,0.498,172.2891,79.7388)"
       gradientUnits="userSpaceOnUse"><stop
         offset="0"
         style="stop-color:#567FC0"
         id="stop4606" /><stop
         offset="1"
         style="stop-color:#557FC0"
         id="stop4608" /></radialGradient><path
       d="m 2.787,127 c -1.613,0 -2.254,1.133 -1.424,2.511 l 24.529,40.745 c 0.772,1.288 0.795,3.317 0.119,4.713 L 31.974,165.044 9.072,127 2.787,127 Z"
       id="path4610"
       style="fill:#d73027"
       inkscape:connector-curvature="0" /><radialGradient
       id="SVGID_12_"
       cx="-300.80109"
       cy="133.1039"
       r="33.058399"
       gradientTransform="matrix(0.498,0,0,0.498,172.2891,79.7388)"
       gradientUnits="userSpaceOnUse"><stop
         offset="0"
         style="stop-color:#E14C40"
         id="stop4613" /><stop
         offset="1"
         style="stop-color:#CD392D"
         id="stop4615" /></radialGradient><path
       d="m 9.072,127 22.903,38.045 3.321,-5.53 c 0.83,-1.385 0.83,-3.645 0,-5.023 L 20.292,129.511 C 19.463,128.133 17.467,127 15.86,127 l -6.788,0 z"
       id="path4617"
       style="fill:#4575b4"
       inkscape:connector-curvature="0" /></g><g
     style="font-style:normal;font-variant:normal;font-weight:900;font-stretch:normal;font-size:27.5px;line-height:89.99999762%;font-family:Roboto;-inkscape-font-specification:'Roboto, Heavy';text-align:start;letter-spacing:0px;word-spacing:0px;writing-mode:lr-tb;text-anchor:start;fill:#4d4d4d;fill-opacity:1;stroke:none;stroke-width:1px;stroke-linecap:butt;stroke-linejoin:miter;stroke-opacity:1"
     id="text5715"><path
       d="m 64.975567,25.972973 q -1.087647,1.208496 -3.182373,1.947021 -2.094727,0.738526 -4.592285,0.738526 -3.840332,0 -6.136475,-2.349854 -2.296143,-2.349853 -2.457275,-6.539306 l -0.01343,-1.691895 q 0,-2.886963 1.020508,-5.0354 1.020508,-2.161866 2.913818,-3.3166507 1.906738,-1.1682129 4.404297,-1.1682129 3.652344,0 5.666504,1.6784666 2.027588,1.665039 2.363281,4.98169 l -4.538574,0 q -0.241699,-1.638184 -1.047363,-2.336426 -0.805664,-0.698242 -2.282715,-0.698242 -1.772461,0 -2.739258,1.503906 -0.966797,1.503906 -0.980225,4.296875 l 0,1.181641 q 0,2.927246 0.993653,4.404296 1.00708,1.463623 3.155517,1.463623 1.8396,0 2.739258,-0.819091 l 0,-3.034668 -3.276367,0 0,-3.236084 7.989502,0 0,8.029785 z"
       style=""
       id="path4219" /><path
       d="m 74.589825,28.65852 q -3.343506,0 -5.411377,-1.987305 -2.067871,-2.000732 -2.067871,-5.196533 l 0,-0.375977 q 0,-2.229004 0.819091,-3.934326 0.83252,-1.705322 2.416993,-2.631836 1.584472,-0.939941 3.759765,-0.939941 3.061524,0 4.833985,1.906738 1.772461,1.893311 1.772461,5.290527 l 0,1.759034 -8.996582,0 q 0.241699,1.221923 1.060791,1.920166 0.819091,0.698242 2.121582,0.698242 2.148437,0 3.356933,-1.503906 l 2.067871,2.443847 q -0.845947,1.168213 -2.403564,1.866455 -1.54419,0.684815 -3.330078,0.684815 z M 74.079571,17.083813 q -1.987305,0 -2.363281,2.631836 l 4.565429,0 0,-0.349121 q 0.02686,-1.087647 -0.550537,-1.678467 -0.577392,-0.604248 -1.651611,-0.604248 z"
       style=""
       id="path4221" /><path
       d="m 86.64793,13.861156 0.147705,1.705323 q 1.503906,-1.973877 4.14917,-1.973877 2.269287,0 3.383789,1.356201 1.12793,1.356201 1.168213,4.082031 l 0,9.359131 -4.538574,0 0,-9.171143 q 0,-1.101074 -0.443115,-1.611328 -0.443116,-0.523681 -1.611328,-0.523681 -1.329346,0 -1.973877,1.047363 l 0,10.258789 -4.525147,0 0,-14.528809 4.243164,0 z"
       style=""
       id="path4223" /><path
       d="m 105.04393,28.65852 q -3.34351,0 -5.411381,-1.987305 -2.067871,-2.000732 -2.067871,-5.196533 l 0,-0.375977 q 0,-2.229004 0.819092,-3.934326 0.83252,-1.705322 2.41699,-2.631836 1.58447,-0.939941 3.75977,-0.939941 3.06152,0 4.83398,1.906738 1.77246,1.893311 1.77246,5.290527 l 0,1.759034 -8.99658,0 q 0.2417,1.221923 1.06079,1.920166 0.81909,0.698242 2.12158,0.698242 2.14844,0 3.35694,-1.503906 l 2.06787,2.443847 q -0.84595,1.168213 -2.40357,1.866455 -1.54419,0.684815 -3.33007,0.684815 z m -0.51026,-11.574707 q -1.9873,0 -2.36328,2.631836 l 4.56543,0 0,-0.349121 q 0.0269,-1.087647 -0.55054,-1.678467 -0.57739,-0.604248 -1.65161,-0.604248 z"
       style=""
       id="path4225" /><path
       d="m 54.908428,48.789378 3.186035,-11.645507 4.306641,0 -5.383301,15.996093 -4.21875,0 -5.339355,-15.996093 4.273681,0 3.175049,11.645507 z"
       style="font-style:normal;font-variant:normal;font-weight:900;font-stretch:normal;font-size:22.5px;line-height:89.99999762%;font-family:Roboto;-inkscape-font-specification:'Roboto, Heavy';text-align:start;writing-mode:lr-tb;text-anchor:start"
       id="path4227" /><path
       d="m 69.597149,53.139964 q -0.197754,-0.362548 -0.351563,-1.065673 -1.021728,1.2854 -2.856445,1.2854 -1.680908,0 -2.856445,-1.010742 -1.175537,-1.021729 -1.175537,-2.559815 0,-1.933593 1.428222,-2.922363 1.428223,-0.988769 4.152832,-0.988769 l 1.142578,0 0,-0.626221 q 0,-1.636963 -1.417236,-1.636963 -1.318359,0 -1.318359,1.296387 l -3.702393,0 q 0,-1.724854 1.461182,-2.801514 1.472168,-1.07666 3.746338,-1.07666 2.27417,0 3.592529,1.109619 1.318359,1.109619 1.351318,3.043213 l 0,5.262451 q 0.02197,1.636963 0.505371,2.504883 l 0,0.186767 -3.702392,0 z m -2.318115,-2.416992 q 0.692138,0 1.142578,-0.296631 0.461426,-0.296631 0.659179,-0.670166 l 0,-1.900634 -1.07666,0 q -1.933593,0 -1.933593,1.735839 0,0.505372 0.340576,0.823975 0.340576,0.307617 0.86792,0.307617 z"
       style="font-style:normal;font-variant:normal;font-weight:900;font-stretch:normal;font-size:22.5px;line-height:89.99999762%;font-family:Roboto;-inkscape-font-specification:'Roboto, Heavy';text-align:start;writing-mode:lr-tb;text-anchor:start"
       id="path4229" /><path
       d="m 82.044659,44.603587 -1.219483,-0.08789 q -1.746826,0 -2.241211,1.098633 l 0,7.525634 -3.702392,0 0,-11.887207 3.471679,0 0.12085,1.5271 q 0.933838,-1.746826 2.60376,-1.746826 0.593262,0 1.032715,0.131836 l -0.06592,3.43872 z"
       style="font-style:normal;font-variant:normal;font-weight:900;font-stretch:normal;font-size:22.5px;line-height:89.99999762%;font-family:Roboto;-inkscape-font-specification:'Roboto, Heavy';text-align:start;writing-mode:lr-tb;text-anchor:start"
       id="path4231" /><path
       d="m 87.285137,53.139964 -3.713379,0 0,-11.887207 3.713379,0 0,11.887207 z M 83.352032,38.187572 q 0,-0.791016 0.571289,-1.296387 0.571289,-0.505371 1.483154,-0.505371 0.911865,0 1.483154,0.505371 0.571289,0.505371 0.571289,1.296387 0,0.791015 -0.571289,1.296387 -0.571289,0.505371 -1.483154,0.505371 -0.911865,0 -1.483154,-0.505371 -0.571289,-0.505372 -0.571289,-1.296387 z"
       style="font-style:normal;font-variant:normal;font-weight:900;font-stretch:normal;font-size:22.5px;line-height:89.99999762%;font-family:Roboto;-inkscape-font-specification:'Roboto, Heavy';text-align:start;writing-mode:lr-tb;text-anchor:start"
       id="path4233" /><path
       d="m 96.271954,53.139964 q -0.197754,-0.362548 -0.351563,-1.065673 -1.021728,1.2854 -2.856445,1.2854 -1.680908,0 -2.856446,-1.010742 -1.175537,-1.021729 -1.175537,-2.559815 0,-1.933593 1.428223,-2.922363 1.428223,-0.988769 4.152832,-0.988769 l 1.142578,0 0,-0.626221 q 0,-1.636963 -1.417236,-1.636963 -1.31836,0 -1.31836,1.296387 l -3.702392,0 q 0,-1.724854 1.461182,-2.801514 1.472167,-1.07666 3.746337,-1.07666 2.27417,0 3.59253,1.109619 1.318359,1.109619 1.351318,3.043213 l 0,5.262451 q 0.02197,1.636963 0.505371,2.504883 l 0,0.186767 -3.702392,0 z m -2.318116,-2.416992 q 0.692139,0 1.142578,-0.296631 0.461426,-0.296631 0.65918,-0.670166 l 0,-1.900634 -1.07666,0 q -1.933594,0 -1.933594,1.735839 0,0.505372 0.340576,0.823975 0.340577,0.307617 0.86792,0.307617 z"
       style="font-style:normal;font-variant:normal;font-weight:900;font-stretch:normal;font-size:22.5px;line-height:89.99999762%;font-family:Roboto;-inkscape-font-specification:'Roboto, Heavy';text-align:start;writing-mode:lr-tb;text-anchor:start"
       id="path4235" /><path
       d="m 105.84105,38.297435 0,2.955322 1.95556,0 0,2.570801 -1.95556,0 0,5.438233 q 0,0.670166 0.24169,0.933837 0.2417,0.263672 0.95582,0.263672 0.54931,0 0.92285,-0.06592 l 0,2.647705 q -0.99976,0.318604 -2.08741,0.318604 -1.91162,0 -2.82348,-0.900879 -0.91187,-0.900879 -0.91187,-2.735596 l 0,-5.899658 -1.51611,0 0,-2.570801 1.51611,0 0,-2.955322 3.7024,0 z"
       style="font-style:normal;font-variant:normal;font-weight:900;font-stretch:normal;font-size:22.5px;line-height:89.99999762%;font-family:Roboto;-inkscape-font-specification:'Roboto, Heavy';text-align:start;writing-mode:lr-tb;text-anchor:start"
       id="path4237" /><path
       d="m 113.16893,53.139964 -3.71338,0 0,-11.887207 3.71338,0 0,11.887207 z m -3.93311,-14.952392 q 0,-0.791016 0.57129,-1.296387 0.57129,-0.505371 1.48315,-0.505371 0.91187,0 1.48316,0.505371 0.57129,0.505371 0.57129,1.296387 0,0.791015 -0.57129,1.296387 -0.57129,0.505371 -1.48316,0.505371 -0.91186,0 -1.48315,-0.505371 -0.57129,-0.505372 -0.57129,-1.296387 z"
       style="font-style:normal;font-variant:normal;font-weight:900;font-stretch:normal;font-size:22.5px;line-height:89.99999762%;font-family:Roboto;-inkscape-font-specification:'Roboto, Heavy';text-align:start;writing-mode:lr-tb;text-anchor:start"
       id="path4239" /><path
       d="m 114.99266,47.086498 q 0,-1.779786 0.69214,-3.164063 0.69213,-1.395264 1.98852,-2.142334 1.29639,-0.74707 3.04321,-0.74707 2.66968,0 4.20777,1.658935 1.53808,1.64795 1.53808,4.493409 l 0,0.131835 q 0,2.779542 -1.54907,4.416504 -1.53808,1.625977 -4.1748,1.625977 -2.53785,0 -4.07593,-1.516113 -1.53809,-1.5271 -1.65894,-4.13086 l -0.011,-0.62622 z m 3.70239,0.230712 q 0,1.64795 0.51636,2.416993 0.51635,0.769043 1.5271,0.769043 1.97754,0 2.02148,-3.043213 l 0,-0.373535 q 0,-3.197022 -2.04346,-3.197022 -1.85669,0 -2.01049,2.757568 l -0.011,0.670166 z"
       style="font-style:normal;font-variant:normal;font-weight:900;font-stretch:normal;font-size:22.5px;line-height:89.99999762%;font-family:Roboto;-inkscape-font-specification:'Roboto, Heavy';text-align:start;writing-mode:lr-tb;text-anchor:start"
       id="path4241" /><path
       d="m 131.47215,41.252757 0.12085,1.395264 q 1.23047,-1.61499 3.39477,-1.61499 1.85669,0 2.76856,1.109619 0.92285,1.109619 0.95581,3.339844 l 0,7.65747 -3.71338,0 0,-7.503662 q 0,-0.900879 -0.36255,-1.318359 -0.36255,-0.428467 -1.31836,-0.428467 -1.08764,0 -1.61499,0.856934 l 0,8.393554 -3.70239,0 0,-11.887207 3.47168,0 z"
       style="font-style:normal;font-variant:normal;font-weight:900;font-stretch:normal;font-size:22.5px;line-height:89.99999762%;font-family:Roboto;-inkscape-font-specification:'Roboto, Heavy';text-align:start;writing-mode:lr-tb;text-anchor:start"
       id="path4243" /><path
       d="m 150.68968,41.471263 2.13501,0 q 2.53784,0 2.53784,-2.484131 0,-0.966797 -0.60425,-1.571045 -0.60425,-0.617675 -1.70532,-0.617675 -0.89966,0 -1.57105,0.523681 -0.65795,0.523682 -0.65795,1.302491 l -4.52515,0 q 0,-1.54419 0.85937,-2.752686 0.85938,-1.208496 2.37671,-1.879883 1.53076,-0.684814 3.35694,-0.684814 3.26294,0 5.12939,1.490478 1.86646,1.490479 1.86646,4.095459 0,1.262207 -0.77881,2.390137 -0.76538,1.114502 -2.24243,1.812744 1.55761,0.563965 2.44384,1.71875 0.88623,1.141358 0.88623,2.833252 0,2.618408 -2.01416,4.189453 -2.01416,1.571045 -5.29052,1.571045 -1.92017,0 -3.57178,-0.725098 -1.63818,-0.738525 -2.48413,-2.027587 -0.84595,-1.302491 -0.84595,-2.954102 l 4.552,0 q 0,0.899658 0.7251,1.557617 0.7251,0.657959 1.78589,0.657959 1.19507,0 1.90674,-0.657959 0.71167,-0.671387 0.71167,-1.705322 0,-1.477051 -0.73853,-2.094727 -0.73852,-0.617675 -2.04101,-0.617675 l -2.20215,0 0,-3.370362 z"
       style=""
       id="path4245" /><path
       d="m 162.78807,53.139964 0,-19.550781 6.2976,0 q 2.59156,0 4.65943,1.181641 2.06787,1.168213 3.22265,3.31665 1.16822,2.13501 1.18164,4.793701 l 0,0.899659 q 0,2.685546 -1.14135,4.820556 -1.12793,2.121582 -3.1958,3.330078 -2.05445,1.195069 -4.59229,1.208496 l -6.43188,0 z m 4.71313,-15.911865 0,12.286377 1.63819,0 q 2.02758,0 3.11523,-1.436767 1.08765,-1.450196 1.08765,-4.296875 l 0,-0.845948 q 0,-2.833252 -1.08765,-4.270019 -1.08765,-1.436768 -3.16895,-1.436768 l -1.58447,0 z"
       style=""
       id="path4247" /></g><g
     style="font-style:normal;font-variant:normal;font-weight:900;font-stretch:normal;font-size:27.5px;line-height:89.99999762%;font-family:Roboto;-inkscape-font-specification:'Roboto, Heavy';text-align:start;letter-spacing:0px;word-spacing:0px;writing-mode:lr-tb;text-anchor:start;fill:#4d4d4d;fill-opacity:1;stroke:none;stroke-width:1px;stroke-linecap:butt;stroke-linejoin:miter;stroke-opacity:1"
     id="text5741"><path
       d="m 65.891151,90.36908 q -1.087646,1.208496 -3.182373,1.947021 -2.094726,0.738525 -4.592285,0.738525 -3.840332,0 -6.136474,-2.349853 -2.296143,-2.349854 -2.457276,-6.539307 l -0.01343,-1.691894 q 0,-2.886963 1.020508,-5.035401 1.020508,-2.161865 2.913819,-3.31665 1.906738,-1.168213 4.404297,-1.168213 3.652343,0 5.666503,1.678467 2.027588,1.665039 2.363282,4.981689 l -4.538575,0 q -0.241699,-1.638183 -1.047363,-2.336425 -0.805664,-0.698243 -2.282715,-0.698243 -1.772461,0 -2.739257,1.503907 -0.966797,1.503906 -0.980225,4.296875 l 0,1.18164 q 0,2.927246 0.993652,4.404297 1.00708,1.463623 3.155518,1.463623 1.839599,0 2.739258,-0.819092 l 0,-3.034668 -3.276368,0 0,-3.236084 7.989502,0 0,8.029786 z"
       style=""
       id="path4250" /><path
       d="m 75.505409,93.054626 q -3.343506,0 -5.411377,-1.987304 -2.067871,-2.000733 -2.067871,-5.196533 l 0,-0.375977 q 0,-2.229004 0.819092,-3.934326 0.83252,-1.705322 2.416992,-2.631836 1.584473,-0.939942 3.759766,-0.939942 3.061523,0 4.833984,1.906739 1.772461,1.89331 1.772461,5.290527 l 0,1.759033 -8.996582,0 q 0.241699,1.221924 1.060791,1.920166 0.819092,0.698243 2.121582,0.698243 2.148438,0 3.356934,-1.503907 l 2.067871,2.443848 q -0.845947,1.168213 -2.403565,1.866455 -1.544189,0.684814 -3.330078,0.684814 z M 74.995155,81.479919 q -1.987304,0 -2.363281,2.631836 l 4.56543,0 0,-0.349121 q 0.02685,-1.087646 -0.550537,-1.678467 -0.577393,-0.604248 -1.651612,-0.604248 z"
       style=""
       id="path4252" /><path
       d="m 87.563515,78.257263 0.147705,1.705322 q 1.503906,-1.973877 4.14917,-1.973877 2.269287,0 3.383789,1.356202 1.127929,1.356201 1.168213,4.082031 l 0,9.359131 -4.538575,0 0,-9.171143 q 0,-1.101074 -0.443115,-1.611328 -0.443115,-0.523682 -1.611328,-0.523682 -1.329346,0 -1.973877,1.047364 l 0,10.258789 -4.525146,0 0,-14.528809 4.243164,0 z"
       style=""
       id="path4254" /><path
       d="m 105.95951,93.054626 q -3.34351,0 -5.41138,-1.987304 -2.067867,-2.000733 -2.067867,-5.196533 l 0,-0.375977 q 0,-2.229004 0.819092,-3.934326 0.832515,-1.705322 2.416995,-2.631836 1.58447,-0.939942 3.75976,-0.939942 3.06153,0 4.83399,1.906739 1.77246,1.89331 1.77246,5.290527 l 0,1.759033 -8.99658,0 q 0.24169,1.221924 1.06079,1.920166 0.81909,0.698243 2.12158,0.698243 2.14844,0 3.35693,-1.503907 l 2.06787,2.443848 q -0.84594,1.168213 -2.40356,1.866455 -1.54419,0.684814 -3.33008,0.684814 z m -0.51025,-11.574707 q -1.98731,0 -2.36328,2.631836 l 4.56543,0 0,-0.349121 q 0.0268,-1.087646 -0.55054,-1.678467 -0.57739,-0.604248 -1.65161,-0.604248 z"
       style=""
       id="path4256" /><path
       d="m 55.824013,113.18549 3.186035,-11.64551 4.306641,0 -5.383301,15.99609 -4.21875,0 -5.339356,-15.99609 4.273682,0 3.175049,11.64551 z"
       style="font-style:normal;font-variant:normal;font-weight:900;font-stretch:normal;font-size:22.5px;line-height:89.99999762%;font-family:Roboto;-inkscape-font-specification:'Roboto, Heavy';text-align:start;writing-mode:lr-tb;text-anchor:start"
       id="path4258" /><path
       d="m 70.512733,117.53607 q -0.197753,-0.36255 -0.351562,-1.06567 -1.021729,1.2854 -2.856445,1.2854 -1.680909,0 -2.856446,-1.01074 -1.175537,-1.02173 -1.175537,-2.55982 0,-1.93359 1.428223,-2.92236 1.428223,-0.98877 4.152832,-0.98877 l 1.142578,0 0,-0.62622 q 0,-1.63697 -1.417236,-1.63697 -1.31836,0 -1.31836,1.29639 l -3.702392,0 q 0,-1.72485 1.461181,-2.80151 1.472168,-1.07666 3.746338,-1.07666 2.27417,0 3.59253,1.10962 1.318359,1.10962 1.351318,3.04321 l 0,5.26245 q 0.02197,1.63696 0.505371,2.50488 l 0,0.18677 -3.702393,0 z m -2.318115,-2.41699 q 0.692139,0 1.142578,-0.29663 0.461426,-0.29663 0.65918,-0.67017 l 0,-1.90063 -1.07666,0 q -1.933594,0 -1.933594,1.73584 0,0.50537 0.340576,0.82397 0.340576,0.30762 0.86792,0.30762 z"
       style="font-style:normal;font-variant:normal;font-weight:900;font-stretch:normal;font-size:22.5px;line-height:89.99999762%;font-family:Roboto;-inkscape-font-specification:'Roboto, Heavy';text-align:start;writing-mode:lr-tb;text-anchor:start"
       id="path4260" /><path
       d="m 82.960243,108.99969 -1.219482,-0.0879 q -1.746826,0 -2.241211,1.09864 l 0,7.52563 -3.702393,0 0,-11.88721 3.47168,0 0.12085,1.5271 q 0.933837,-1.74682 2.603759,-1.74682 0.593262,0 1.032715,0.13183 l -0.06592,3.43872 z"
       style="font-style:normal;font-variant:normal;font-weight:900;font-stretch:normal;font-size:22.5px;line-height:89.99999762%;font-family:Roboto;-inkscape-font-specification:'Roboto, Heavy';text-align:start;writing-mode:lr-tb;text-anchor:start"
       id="path4262" /><path
       d="m 88.200722,117.53607 -3.713379,0 0,-11.88721 3.713379,0 0,11.88721 z m -3.933106,-14.95239 q 0,-0.79102 0.571289,-1.29639 0.571289,-0.50537 1.483155,-0.50537 0.911865,0 1.483154,0.50537 0.571289,0.50537 0.571289,1.29639 0,0.79101 -0.571289,1.29639 -0.571289,0.50537 -1.483154,0.50537 -0.911866,0 -1.483155,-0.50537 -0.571289,-0.50538 -0.571289,-1.29639 z"
       style="font-style:normal;font-variant:normal;font-weight:900;font-stretch:normal;font-size:22.5px;line-height:89.99999762%;font-family:Roboto;-inkscape-font-specification:'Roboto, Heavy';text-align:start;writing-mode:lr-tb;text-anchor:start"
       id="path4264" /><path
       d="m 97.187538,117.53607 q -0.197754,-0.36255 -0.351562,-1.06567 -1.021729,1.2854 -2.856446,1.2854 -1.680908,0 -2.856445,-1.01074 -1.175537,-1.02173 -1.175537,-2.55982 0,-1.93359 1.428223,-2.92236 1.428222,-0.98877 4.152832,-0.98877 l 1.142578,0 0,-0.62622 q 0,-1.63697 -1.417237,-1.63697 -1.318359,0 -1.318359,1.29639 l -3.702393,0 q 0,-1.72485 1.461182,-2.80151 1.472168,-1.07666 3.746338,-1.07666 2.27417,0 3.592529,1.10962 1.318359,1.10962 1.351319,3.04321 l 0,5.26245 q 0.022,1.63696 0.50537,2.50488 l 0,0.18677 -3.702392,0 z m -2.318115,-2.41699 q 0.692139,0 1.142578,-0.29663 0.461426,-0.29663 0.65918,-0.67017 l 0,-1.90063 -1.07666,0 q -1.933594,0 -1.933594,1.73584 0,0.50537 0.340576,0.82397 0.340576,0.30762 0.86792,0.30762 z"
       style="font-style:normal;font-variant:normal;font-weight:900;font-stretch:normal;font-size:22.5px;line-height:89.99999762%;font-family:Roboto;-inkscape-font-specification:'Roboto, Heavy';text-align:start;writing-mode:lr-tb;text-anchor:start"
       id="path4266" /><path
       d="m 106.75663,102.69354 0,2.95532 1.95557,0 0,2.5708 -1.95557,0 0,5.43824 q 0,0.67016 0.2417,0.93384 0.2417,0.26367 0.95581,0.26367 0.54932,0 0.92285,-0.0659 l 0,2.6477 q -0.99975,0.31861 -2.0874,0.31861 -1.91162,0 -2.82349,-0.90088 -0.91186,-0.90088 -0.91186,-2.7356 l 0,-5.89966 -1.51612,0 0,-2.5708 1.51612,0 0,-2.95532 3.70239,0 z"
       style="font-style:normal;font-variant:normal;font-weight:900;font-stretch:normal;font-size:22.5px;line-height:89.99999762%;font-family:Roboto;-inkscape-font-specification:'Roboto, Heavy';text-align:start;writing-mode:lr-tb;text-anchor:start"
       id="path4268" /><path
       d="m 114.08451,117.53607 -3.71338,0 0,-11.88721 3.71338,0 0,11.88721 z m -3.9331,-14.95239 q 0,-0.79102 0.57128,-1.29639 0.57129,-0.50537 1.48316,-0.50537 0.91186,0 1.48315,0.50537 0.57129,0.50537 0.57129,1.29639 0,0.79101 -0.57129,1.29639 -0.57129,0.50537 -1.48315,0.50537 -0.91187,0 -1.48316,-0.50537 -0.57128,-0.50538 -0.57128,-1.29639 z"
       style="font-style:normal;font-variant:normal;font-weight:900;font-stretch:normal;font-size:22.5px;line-height:89.99999762%;font-family:Roboto;-inkscape-font-specification:'Roboto, Heavy';text-align:start;writing-mode:lr-tb;text-anchor:start"
       id="path4270" /><path
       d="m 115.90824,111.4826 q 0,-1.77978 0.69214,-3.16406 0.69214,-1.39526 1.98853,-2.14233 1.29638,-0.74707 3.04321,-0.74707 2.66968,0 4.20776,1.65893 1.53809,1.64795 1.53809,4.49341 l 0,0.13184 q 0,2.77954 -1.54907,4.4165 -1.53809,1.62598 -4.17481,1.62598 -2.53784,0 -4.07593,-1.51612 -1.53808,-1.5271 -1.65893,-4.13085 l -0.011,-0.62623 z m 3.70239,0.23072 q 0,1.64795 0.51636,2.41699 0.51636,0.76904 1.5271,0.76904 1.97754,0 2.02149,-3.04321 l 0,-0.37354 q 0,-3.19702 -2.04346,-3.19702 -1.85669,0 -2.0105,2.75757 l -0.011,0.67017 z"
       style="font-style:normal;font-variant:normal;font-weight:900;font-stretch:normal;font-size:22.5px;line-height:89.99999762%;font-family:Roboto;-inkscape-font-specification:'Roboto, Heavy';text-align:start;writing-mode:lr-tb;text-anchor:start"
       id="path4272" /><path
       d="m 132.38773,105.64886 0.12085,1.39527 q 1.23047,-1.61499 3.39478,-1.61499 1.85669,0 2.76855,1.10962 0.92285,1.10962 0.95581,3.33984 l 0,7.65747 -3.71338,0 0,-7.50366 q 0,-0.90088 -0.36254,-1.31836 -0.36255,-0.42847 -1.31836,-0.42847 -1.08765,0 -1.61499,0.85694 l 0,8.39355 -3.7024,0 0,-11.88721 3.47168,0 z"
       style="font-style:normal;font-variant:normal;font-weight:900;font-stretch:normal;font-size:22.5px;line-height:89.99999762%;font-family:Roboto;-inkscape-font-specification:'Roboto, Heavy';text-align:start;writing-mode:lr-tb;text-anchor:start"
       id="path4274" /><path
       d="m 151.60526,105.86737 2.13501,0 q 2.53784,0 2.53784,-2.48413 0,-0.9668 -0.60424,-1.57105 -0.60425,-0.61767 -1.70533,-0.61767 -0.89965,0 -1.57104,0.52368 -0.65796,0.52368 -0.65796,1.30249 l -4.52515,0 q 0,-1.54419 0.85938,-2.75269 0.85937,-1.208491 2.37671,-1.879878 1.53076,-0.684815 3.35693,-0.684815 3.26294,0 5.1294,1.490479 1.86645,1.490474 1.86645,4.095454 0,1.26221 -0.77881,2.39014 -0.76538,1.1145 -2.24243,1.81275 1.55762,0.56396 2.44385,1.71875 0.88623,1.14135 0.88623,2.83325 0,2.61841 -2.01416,4.18945 -2.01416,1.57105 -5.29053,1.57105 -1.92016,0 -3.57178,-0.7251 -1.63818,-0.73853 -2.48413,-2.02759 -0.84594,-1.30249 -0.84594,-2.9541 l 4.552,0 q 0,0.89966 0.7251,1.55762 0.72509,0.65795 1.78588,0.65795 1.19507,0 1.90674,-0.65795 0.71167,-0.67139 0.71167,-1.70533 0,-1.47705 -0.73852,-2.09472 -0.73853,-0.61768 -2.04102,-0.61768 l -2.20215,0 0,-3.37036 z"
       style=""
       id="path4276" /><path
       d="m 163.70365,117.53607 0,-19.55078 6.29761,0 q 2.59155,0 4.65942,1.18164 2.06787,1.16821 3.22266,3.31665 1.16821,2.13501 1.18164,4.7937 l 0,0.89966 q 0,2.68555 -1.14136,4.82056 -1.12793,2.12158 -3.1958,3.33008 -2.05444,1.19506 -4.59228,1.20849 l -6.43189,0 z m 4.71314,-15.91186 0,12.28637 1.63818,0 q 2.02759,0 3.11523,-1.43676 1.08765,-1.4502 1.08765,-4.29688 l 0,-0.84595 q 0,-2.83325 -1.08765,-4.27002 -1.08764,-1.43676 -3.16894,-1.43676 l -1.58447,0 z"
       style=""
       id="path4278" /></g><g
     style="font-style:normal;font-variant:normal;font-weight:900;font-stretch:normal;font-size:27.5px;line-height:89.99999762%;font-family:Roboto;-inkscape-font-specification:'Roboto, Heavy';text-align:start;letter-spacing:0px;word-spacing:0px;writing-mode:lr-tb;text-anchor:start;fill:#cccccc;fill-opacity:1;stroke:none;stroke-width:1px;stroke-linecap:butt;stroke-linejoin:miter;stroke-opacity:1"
     id="text5749"><path
       d="m 65.280762,152.93402 q -1.087647,1.2085 -3.182373,1.94702 -2.094727,0.73853 -4.592285,0.73853 -3.840333,0 -6.136475,-2.34986 -2.296143,-2.34985 -2.457275,-6.5393 l -0.01343,-1.6919 q 0,-2.88696 1.020508,-5.0354 1.020507,-2.16186 2.913818,-3.31665 1.906738,-1.16821 4.404297,-1.16821 3.652344,0 5.666504,1.67847 2.027588,1.66504 2.363281,4.98169 l -4.538574,0 q -0.241699,-1.63819 -1.047364,-2.33643 -0.805664,-0.69824 -2.282714,-0.69824 -1.772461,0 -2.739258,1.5039 -0.966797,1.50391 -0.980225,4.29688 l 0,1.18164 q 0,2.92725 0.993653,4.4043 1.00708,1.46362 3.155517,1.46362 1.8396,0 2.739258,-0.81909 l 0,-3.03467 -3.276367,0 0,-3.23608 7.989502,0 0,8.02978 z"
       style=""
       id="path4281" /><path
       d="m 74.89502,155.61957 q -3.343506,0 -5.411377,-1.98731 -2.067872,-2.00073 -2.067872,-5.19653 l 0,-0.37598 q 0,-2.229 0.819092,-3.93432 0.83252,-1.70533 2.416992,-2.63184 1.584473,-0.93994 3.759766,-0.93994 3.061524,0 4.833984,1.90674 1.772461,1.89331 1.772461,5.29053 l 0,1.75903 -8.996582,0 q 0.2417,1.22192 1.060791,1.92016 0.819092,0.69825 2.121582,0.69825 2.148438,0 3.356934,-1.50391 l 2.067871,2.44385 q -0.845947,1.16821 -2.403564,1.86645 -1.54419,0.68482 -3.330078,0.68482 z m -0.510254,-11.57471 q -1.987305,0 -2.363282,2.63184 l 4.56543,0 0,-0.34912 q 0.02686,-1.08765 -0.550537,-1.67847 -0.577393,-0.60425 -1.651611,-0.60425 z"
       style=""
       id="path4283" /><path
       d="m 86.953125,140.8222 0.147705,1.70533 q 1.503906,-1.97388 4.14917,-1.97388 2.269287,0 3.383789,1.3562 1.12793,1.3562 1.168213,4.08203 l 0,9.35913 -4.538574,0 0,-9.17114 q 0,-1.10107 -0.443116,-1.61133 -0.443115,-0.52368 -1.611328,-0.52368 -1.329345,0 -1.973877,1.04736 l 0,10.25879 -4.525146,0 0,-14.52881 4.243164,0 z"
       style=""
       id="path4285" /><path
       d="m 105.34912,155.61957 q -3.3435,0 -5.411376,-1.98731 -2.067871,-2.00073 -2.067871,-5.19653 l 0,-0.37598 q 0,-2.229 0.819092,-3.93432 0.832519,-1.70533 2.416995,-2.63184 1.58447,-0.93994 3.75976,-0.93994 3.06153,0 4.83399,1.90674 1.77246,1.89331 1.77246,5.29053 l 0,1.75903 -8.99658,0 q 0.2417,1.22192 1.06079,1.92016 0.81909,0.69825 2.12158,0.69825 2.14844,0 3.35693,-1.50391 l 2.06787,2.44385 q -0.84594,1.16821 -2.40356,1.86645 -1.54419,0.68482 -3.33008,0.68482 z m -0.51025,-11.57471 q -1.98731,0 -2.36328,2.63184 l 4.56543,0 0,-0.34912 q 0.0268,-1.08765 -0.55054,-1.67847 -0.57739,-0.60425 -1.65161,-0.60425 z"
       style=""
       id="path4287" /><path
       d="m 55.213623,175.75043 3.186035,-11.64551 4.306641,0 -5.383301,15.99609 -4.21875,0 -5.339355,-15.99609 4.273681,0 3.175049,11.64551 z"
       style="font-style:normal;font-variant:normal;font-weight:900;font-stretch:normal;font-size:22.5px;line-height:89.99999762%;font-family:Roboto;-inkscape-font-specification:'Roboto, Heavy';text-align:start;writing-mode:lr-tb;text-anchor:start;fill:#cccccc"
       id="path4289" /><path
       d="m 69.902344,180.10101 q -0.197754,-0.36255 -0.351563,-1.06567 -1.021728,1.2854 -2.856445,1.2854 -1.680908,0 -2.856445,-1.01074 -1.175537,-1.02173 -1.175537,-2.55982 0,-1.93359 1.428222,-2.92236 1.428223,-0.98877 4.152832,-0.98877 l 1.142578,0 0,-0.62622 q 0,-1.63696 -1.417236,-1.63696 -1.318359,0 -1.318359,1.29638 l -3.702393,0 q 0,-1.72485 1.461182,-2.80151 1.472168,-1.07666 3.746338,-1.07666 2.274169,0 3.592529,1.10962 1.318359,1.10962 1.351318,3.04321 l 0,5.26245 q 0.02197,1.63697 0.505371,2.50488 l 0,0.18677 -3.702392,0 z m -2.318115,-2.41699 q 0.692138,0 1.142578,-0.29663 0.461425,-0.29663 0.659179,-0.67017 l 0,-1.90063 -1.07666,0 q -1.933594,0 -1.933594,1.73584 0,0.50537 0.340577,0.82397 0.340576,0.30762 0.86792,0.30762 z"
       style="font-style:normal;font-variant:normal;font-weight:900;font-stretch:normal;font-size:22.5px;line-height:89.99999762%;font-family:Roboto;-inkscape-font-specification:'Roboto, Heavy';text-align:start;writing-mode:lr-tb;text-anchor:start;fill:#cccccc"
       id="path4291" /><path
       d="m 82.349854,171.56464 -1.219483,-0.0879 q -1.746826,0 -2.241211,1.09864 l 0,7.52563 -3.702392,0 0,-11.8872 3.471679,0 0.12085,1.5271 q 0.933838,-1.74683 2.60376,-1.74683 0.593261,0 1.032714,0.13183 l -0.06592,3.43873 z"
       style="font-style:normal;font-variant:normal;font-weight:900;font-stretch:normal;font-size:22.5px;line-height:89.99999762%;font-family:Roboto;-inkscape-font-specification:'Roboto, Heavy';text-align:start;writing-mode:lr-tb;text-anchor:start;fill:#cccccc"
       id="path4293" /><path
       d="m 87.590332,180.10101 -3.713379,0 0,-11.8872 3.713379,0 0,11.8872 z m -3.933105,-14.95239 q 0,-0.79102 0.571289,-1.29639 0.571289,-0.50537 1.483154,-0.50537 0.911865,0 1.483154,0.50537 0.571289,0.50537 0.571289,1.29639 0,0.79102 -0.571289,1.29639 -0.571289,0.50537 -1.483154,0.50537 -0.911865,0 -1.483154,-0.50537 -0.571289,-0.50537 -0.571289,-1.29639 z"
       style="font-style:normal;font-variant:normal;font-weight:900;font-stretch:normal;font-size:22.5px;line-height:89.99999762%;font-family:Roboto;-inkscape-font-specification:'Roboto, Heavy';text-align:start;writing-mode:lr-tb;text-anchor:start;fill:#cccccc"
       id="path4295" /><path
       d="m 96.577148,180.10101 q -0.197753,-0.36255 -0.351562,-1.06567 -1.021729,1.2854 -2.856445,1.2854 -1.680909,0 -2.856446,-1.01074 -1.175537,-1.02173 -1.175537,-2.55982 0,-1.93359 1.428223,-2.92236 1.428223,-0.98877 4.152832,-0.98877 l 1.142578,0 0,-0.62622 q 0,-1.63696 -1.417236,-1.63696 -1.31836,0 -1.31836,1.29638 l -3.702392,0 q 0,-1.72485 1.461181,-2.80151 1.472168,-1.07666 3.746338,-1.07666 2.27417,0 3.59253,1.10962 1.318359,1.10962 1.351318,3.04321 l 0,5.26245 q 0.02197,1.63697 0.50537,2.50488 l 0,0.18677 -3.702392,0 z m -2.318115,-2.41699 q 0.692139,0 1.142578,-0.29663 0.461426,-0.29663 0.65918,-0.67017 l 0,-1.90063 -1.07666,0 q -1.933594,0 -1.933594,1.73584 0,0.50537 0.340576,0.82397 0.340576,0.30762 0.86792,0.30762 z"
       style="font-style:normal;font-variant:normal;font-weight:900;font-stretch:normal;font-size:22.5px;line-height:89.99999762%;font-family:Roboto;-inkscape-font-specification:'Roboto, Heavy';text-align:start;writing-mode:lr-tb;text-anchor:start;fill:#cccccc"
       id="path4297" /><path
       d="m 106.14624,165.25848 0,2.95533 1.95557,0 0,2.5708 -1.95557,0 0,5.43823 q 0,0.67016 0.2417,0.93384 0.2417,0.26367 0.95581,0.26367 0.54932,0 0.92285,-0.0659 l 0,2.64771 q -0.99975,0.3186 -2.0874,0.3186 -1.91162,0 -2.82349,-0.90088 -0.91186,-0.90088 -0.91186,-2.7356 l 0,-5.89965 -1.51612,0 0,-2.5708 1.51612,0 0,-2.95533 3.70239,0 z"
       style="font-style:normal;font-variant:normal;font-weight:900;font-stretch:normal;font-size:22.5px;line-height:89.99999762%;font-family:Roboto;-inkscape-font-specification:'Roboto, Heavy';text-align:start;writing-mode:lr-tb;text-anchor:start;fill:#cccccc"
       id="path4299" /><path
       d="m 113.47412,180.10101 -3.71338,0 0,-11.8872 3.71338,0 0,11.8872 z m -3.9331,-14.95239 q 0,-0.79102 0.57128,-1.29639 0.57129,-0.50537 1.48316,-0.50537 0.91186,0 1.48315,0.50537 0.57129,0.50537 0.57129,1.29639 0,0.79102 -0.57129,1.29639 -0.57129,0.50537 -1.48315,0.50537 -0.91187,0 -1.48316,-0.50537 -0.57128,-0.50537 -0.57128,-1.29639 z"
       style="font-style:normal;font-variant:normal;font-weight:900;font-stretch:normal;font-size:22.5px;line-height:89.99999762%;font-family:Roboto;-inkscape-font-specification:'Roboto, Heavy';text-align:start;writing-mode:lr-tb;text-anchor:start;fill:#cccccc"
       id="path4301" /><path
       d="m 115.29785,174.04755 q 0,-1.77979 0.69214,-3.16407 0.69214,-1.39526 1.98853,-2.14233 1.29638,-0.74707 3.04321,-0.74707 2.66968,0 4.20776,1.65893 1.53809,1.64795 1.53809,4.49341 l 0,0.13184 q 0,2.77954 -1.54907,4.4165 -1.53809,1.62598 -4.17481,1.62598 -2.53784,0 -4.07593,-1.51611 -1.53808,-1.5271 -1.65893,-4.13086 l -0.011,-0.62622 z m 3.70239,0.23071 q 0,1.64795 0.51636,2.41699 0.51636,0.76904 1.5271,0.76904 1.97754,0 2.02149,-3.04321 l 0,-0.37353 q 0,-3.19703 -2.04346,-3.19703 -1.85669,0 -2.0105,2.75757 l -0.011,0.67017 z"
       style="font-style:normal;font-variant:normal;font-weight:900;font-stretch:normal;font-size:22.5px;line-height:89.99999762%;font-family:Roboto;-inkscape-font-specification:'Roboto, Heavy';text-align:start;writing-mode:lr-tb;text-anchor:start;fill:#cccccc"
       id="path4303" /><path
       d="m 131.77734,168.21381 0.12085,1.39526 q 1.23047,-1.61499 3.39478,-1.61499 1.85669,0 2.76855,1.10962 0.92285,1.10962 0.95581,3.33984 l 0,7.65747 -3.71337,0 0,-7.50366 q 0,-0.90088 -0.36255,-1.31836 -0.36255,-0.42847 -1.31836,-0.42847 -1.08765,0 -1.61499,0.85694 l 0,8.39355 -3.7024,0 0,-11.8872 3.47168,0 z"
       style="font-style:normal;font-variant:normal;font-weight:900;font-stretch:normal;font-size:22.5px;line-height:89.99999762%;font-family:Roboto;-inkscape-font-specification:'Roboto, Heavy';text-align:start;writing-mode:lr-tb;text-anchor:start;fill:#cccccc"
       id="path4305" /><path
       d="m 150.99487,168.43231 2.13501,0 q 2.53784,0 2.53784,-2.48413 0,-0.9668 -0.60424,-1.57104 -0.60425,-0.61768 -1.70533,-0.61768 -0.89965,0 -1.57104,0.52368 -0.65796,0.52368 -0.65796,1.30249 l -4.52515,0 q 0,-1.54419 0.85938,-2.75268 0.85937,-1.2085 2.37671,-1.87989 1.53076,-0.68481 3.35693,-0.68481 3.26294,0 5.1294,1.49048 1.86645,1.49048 1.86645,4.09546 0,1.2622 -0.77881,2.39013 -0.76538,1.11451 -2.24243,1.81275 1.55762,0.56396 2.44385,1.71875 0.88623,1.14135 0.88623,2.83325 0,2.61841 -2.01416,4.18945 -2.01416,1.57105 -5.29053,1.57105 -1.92016,0 -3.57178,-0.7251 -1.63818,-0.73853 -2.48413,-2.02759 -0.84594,-1.30249 -0.84594,-2.9541 l 4.552,0 q 0,0.89966 0.7251,1.55762 0.72509,0.65796 1.78588,0.65796 1.19507,0 1.90674,-0.65796 0.71167,-0.67139 0.71167,-1.70532 0,-1.47706 -0.73852,-2.09473 -0.73853,-0.61768 -2.04102,-0.61768 l -2.20215,0 0,-3.37036 z"
       style=""
       id="path4307" /><path
       d="m 163.09326,180.10101 0,-19.55078 6.29761,0 q 2.59155,0 4.65942,1.18164 2.06787,1.16821 3.22266,3.31665 1.16821,2.13501 1.18164,4.7937 l 0,0.89966 q 0,2.68555 -1.14136,4.82056 -1.12793,2.12158 -3.1958,3.33008 -2.05444,1.19506 -4.59228,1.20849 l -6.43189,0 z m 4.71314,-15.91186 0,12.28637 1.63818,0 q 2.02759,0 3.11523,-1.43676 1.08765,-1.4502 1.08765,-4.29688 l 0,-0.84595 q 0,-2.83325 -1.08765,-4.27002 -1.08764,-1.43676 -3.16894,-1.43676 l -1.58447,0 z"
       style=""
       id="path4309" /></g></svg>