<?xml version="1.0" encoding="UTF-8" standalone="no"?>
<!-- Generator: Adobe Illustrator 17.0.1, SVG Export Plug-In . SVG Version: 6.00 Build 0)  -->

<svg
   xmlns:osb="http://www.openswatchbook.org/uri/2009/osb"
   xmlns:dc="http://purl.org/dc/elements/1.1/"
   xmlns:cc="http://creativecommons.org/ns#"
   xmlns:rdf="http://www.w3.org/1999/02/22-rdf-syntax-ns#"
   xmlns:svg="http://www.w3.org/2000/svg"
   xmlns="http://www.w3.org/2000/svg"
   xmlns:sodipodi="http://sodipodi.sourceforge.net/DTD/sodipodi-0.dtd"
   xmlns:inkscape="http://www.inkscape.org/namespaces/inkscape"
   version="1.1"
   id="Layer_1"
   x="0px"
   y="0px"
   width="185px"
   height="188px"
   viewBox="0 0 185 188"
   enable-background="new 0 0 185 188"
   xml:space="preserve"
   inkscape:version="0.91 r13725"
   sodipodi:docname="logos.svg"><metadata
     id="metadata4623"><rdf:RDF><cc:Work
         rdf:about=""><dc:format>image/svg+xml</dc:format><dc:type
           rdf:resource="http://purl.org/dc/dcmitype/StillImage" /><dc:title /></cc:Work></rdf:RDF></metadata><defs
     id="defs4621"><linearGradient
       id="linearGradient5709"
       osb:paint="solid"><stop
         style="stop-color:#000000;stop-opacity:1;"
         offset="0"
         id="stop5711" /></linearGradient><linearGradient
       id="linearGradient4258"
       osb:paint="solid"><stop
         style="stop-color:#000000;stop-opacity:1;"
         offset="0"
         id="stop4260" /></linearGradient></defs><sodipodi:namedview
     pagecolor="#ffffff"
     bordercolor="#666666"
     borderopacity="1"
     objecttolerance="10"
     gridtolerance="10"
     guidetolerance="10"
     inkscape:pageopacity="0"
     inkscape:pageshadow="2"
     inkscape:window-width="1440"
     inkscape:window-height="815"
     id="namedview4619"
     showgrid="false"
     inkscape:zoom="3.2765957"
     inkscape:cx="92.5"
     inkscape:cy="94"
     inkscape:window-x="0"
     inkscape:window-y="1"
     inkscape:window-maximized="1"
     inkscape:current-layer="Layer_1" /><g
     id="g4391"
     transform="matrix(0,1,-0.69989177,0,44.728154,12.088621)"><g
       id="g4409" /><radialGradient
       id="SVGID_1_"
       cx="-310.58301"
       cy="-60.055"
       r="20.113701"
       gradientTransform="matrix(0.498,0,0,0.498,172.2891,79.7388)"
       gradientUnits="userSpaceOnUse"><stop
         offset="0"
         style="stop-color:#FFCF4F"
         id="stop4440" /><stop
         offset="1"
         style="stop-color:#F4C236"
         id="stop4442" /></radialGradient><path
       d="m 8.91,61 6.791,0 c 1.607,0 3.604,-1.128 4.432,-2.511 l 5.72,-9.519 c 0.677,-1.396 0.653,-3.426 -0.119,-4.713 L 22.356,38.665 8.91,61 Z"
       id="path4444"
       style="fill:#abd9e9"
       inkscape:connector-curvature="0" /><radialGradient
       id="SVGID_2_"
       cx="-322.6347"
       cy="-70.269501"
       r="27.658199"
       gradientTransform="matrix(0.498,0,0,0.498,172.2891,79.7388)"
       gradientUnits="userSpaceOnUse"><stop
         offset="0"
         style="stop-color:#08A960"
         id="stop4447" /><stop
         offset="1"
         style="stop-color:#07914B"
         id="stop4449" /></radialGradient><path
       d="M 16.209,33.514 1.108,58.763 C 0.524,60.011 1.131,61 2.629,61 L 8.91,61 22.356,38.665 16.21,28.492 c 0.829,1.378 0.829,3.638 -0.001,5.022"
       id="path4451"
       style="fill:#fdae61;stroke:none;stroke-opacity:1"
       inkscape:connector-curvature="0" /><radialGradient
       id="SVGID_3_"
       cx="-313.18311"
       cy="-109.9511"
       r="40.540001"
       gradientTransform="matrix(0.498,0,0,0.498,172.2891,79.7388)"
       gradientUnits="userSpaceOnUse"><stop
         offset="0"
         style="stop-color:#567FC0"
         id="stop4454" /><stop
         offset="1"
         style="stop-color:#557FC0"
         id="stop4456" /></radialGradient><path
       d="M 2.629,1 C 1.015,1 0.375,2.133 1.205,3.511 l 24.529,40.745 c 0.772,1.288 0.795,3.317 0.119,4.713 L 31.816,39.044 8.914,1 2.629,1 Z"
       id="path4458"
       style="fill:#d73027"
       inkscape:connector-curvature="0" /><radialGradient
       id="SVGID_4_"
       cx="-301.11911"
       cy="-119.9164"
       r="33.058399"
       gradientTransform="matrix(0.498,0,0,0.498,172.2891,79.7388)"
       gradientUnits="userSpaceOnUse"><stop
         offset="0"
         style="stop-color:#E14C40"
         id="stop4461" /><stop
         offset="1"
         style="stop-color:#CD392D"
         id="stop4463" /></radialGradient><path
       d="m 8.914,1 22.903,38.045 3.321,-5.53 c 0.83,-1.385 0.83,-3.645 0,-5.023 L 20.133,3.511 C 19.305,2.133 17.308,1 15.701,1 L 8.914,1 Z"
       id="path4465"
       style="fill:#4575b4"
       inkscape:connector-curvature="0" /></g><g
     id="g4467"
     transform="matrix(0,1,-0.68971861,0,88.170347,76.614502)"><g
       id="g4469" /><g
       id="g4485" /><g
       id="g4507" /><radialGradient
       id="SVGID_5_"
       cx="-310.58301"
       cy="66.4552"
       r="20.113701"
       gradientTransform="matrix(0.498,0,0,0.498,172.2891,79.7388)"
       gradientUnits="userSpaceOnUse"><stop
         offset="0"
         style="stop-color:#CCCCCC"
         id="stop4516" /><stop
         offset="1"
         style="stop-color:#C0C0C0"
         id="stop4518" /></radialGradient><path
       d="m 8.91,124 6.791,0 c 1.607,0 3.604,-1.128 4.432,-2.511 l 5.72,-9.519 c 0.677,-1.396 0.653,-3.426 -0.119,-4.713 L 22.356,101.665 8.91,124 Z"
       id="path4520"
       style="fill:url(#SVGID_5_)"
       inkscape:connector-curvature="0" /><radialGradient
       id="SVGID_6_"
       cx="-322.6347"
       cy="56.2407"
       r="27.658199"
       gradientTransform="matrix(0.498,0,0,0.498,172.2891,79.7388)"
       gradientUnits="userSpaceOnUse"><stop
         offset="0"
         style="stop-color:#A0A0A0"
         id="stop4523" /><stop
         offset="1"
         style="stop-color:#7B7B7B"
         id="stop4525" /></radialGradient><path
       d="M 16.209,96.514 1.108,121.763 C 0.524,123.011 1.131,124 2.629,124 L 8.91,124 22.356,101.665 16.21,91.492 c 0.829,1.378 0.829,3.638 -0.001,5.022"
       id="path4527"
       style="fill:url(#SVGID_6_)"
       inkscape:connector-curvature="0" /><radialGradient
       id="SVGID_7_"
       cx="-313.18311"
       cy="16.559"
       r="40.540001"
       gradientTransform="matrix(0.498,0,0,0.498,172.2891,79.7388)"
       gradientUnits="userSpaceOnUse"><stop
         offset="0"
         style="stop-color:#848484"
         id="stop4530" /><stop
         offset="1"
         style="stop-color:#838383"
         id="stop4532" /></radialGradient><path
       d="m 2.629,64 c -1.613,0 -2.254,1.133 -1.424,2.511 l 24.529,40.745 c 0.772,1.288 0.795,3.317 0.119,4.713 L 31.816,102.044 8.914,64 2.629,64 Z"
       id="path4534"
       style="fill:url(#SVGID_7_)"
       inkscape:connector-curvature="0" /><radialGradient
       id="SVGID_8_"
       cx="-301.11911"
       cy="6.5938001"
       r="33.058399"
       gradientTransform="matrix(0.498,0,0,0.498,172.2891,79.7388)"
       gradientUnits="userSpaceOnUse"><stop
         offset="0"
         style="stop-color:#626262"
         id="stop4537" /><stop
         offset="1"
         style="stop-color:#474747"
         id="stop4539" /></radialGradient><path
       d="m 8.914,64 22.903,38.045 3.321,-5.53 c 0.83,-1.385 0.83,-3.645 0,-5.023 L 20.134,66.512 C 19.305,65.133 17.308,64 15.701,64 l -6.787,0 z"
       id="path4541"
       style="fill:url(#SVGID_8_)"
       inkscape:connector-curvature="0" /></g><g
     id="g4543"
     transform="matrix(0,1,-0.68971861,0,131.17023,138.54092)"><g
       id="g4545" /><g
       id="g4561" /><g
       id="g4583" /><radialGradient
       id="SVGID_9_"
       cx="-310.26501"
       cy="192.9653"
       r="20.113701"
       gradientTransform="matrix(0.498,0,0,0.498,172.2891,79.7388)"
       gradientUnits="userSpaceOnUse"><stop
         offset="0"
         style="stop-color:#FFCF4F"
         id="stop4592" /><stop
         offset="1"
         style="stop-color:#F4C236"
         id="stop4594" /></radialGradient><path
       d="m 9.068,187 6.791,0 c 1.607,0 3.604,-1.128 4.432,-2.511 l 5.72,-9.519 c 0.677,-1.396 0.653,-3.426 -0.119,-4.713 L 22.514,164.665 9.068,187 Z"
       id="path4596"
       style="fill:#abd9e9"
       inkscape:connector-curvature="0" /><radialGradient
       id="SVGID_10_"
       cx="-322.31671"
       cy="182.75079"
       r="27.658199"
       gradientTransform="matrix(0.498,0,0,0.498,172.2891,79.7388)"
       gradientUnits="userSpaceOnUse"><stop
         offset="0"
         style="stop-color:#08A960"
         id="stop4599" /><stop
         offset="1"
         style="stop-color:#07914B"
         id="stop4601" /></radialGradient><path
       d="M 16.368,159.514 1.266,184.763 C 0.683,186.011 1.289,187 2.787,187 l 6.281,0 13.446,-22.335 -6.146,-10.173 c 0.829,1.378 0.829,3.638 0,5.022"
       id="path4603"
       style="fill:#fdae61"
       inkscape:connector-curvature="0" /><radialGradient
       id="SVGID_11_"
       cx="-312.86511"
       cy="143.06911"
       r="40.540001"
       gradientTransform="matrix(0.498,0,0,0.498,172.2891,79.7388)"
       gradientUnits="userSpaceOnUse"><stop
         offset="0"
         style="stop-color:#567FC0"
         id="stop4606" /><stop
         offset="1"
         style="stop-color:#557FC0"
         id="stop4608" /></radialGradient><path
       d="m 2.787,127 c -1.613,0 -2.254,1.133 -1.424,2.511 l 24.529,40.745 c 0.772,1.288 0.795,3.317 0.119,4.713 L 31.974,165.044 9.072,127 2.787,127 Z"
       id="path4610"
       style="fill:#d73027"
       inkscape:connector-curvature="0" /><radialGradient
       id="SVGID_12_"
       cx="-300.80109"
       cy="133.1039"
       r="33.058399"
       gradientTransform="matrix(0.498,0,0,0.498,172.2891,79.7388)"
       gradientUnits="userSpaceOnUse"><stop
         offset="0"
         style="stop-color:#E14C40"
         id="stop4613" /><stop
         offset="1"
         style="stop-color:#CD392D"
         id="stop4615" /></radialGradient><path
       d="m 9.072,127 22.903,38.045 3.321,-5.53 c 0.83,-1.385 0.83,-3.645 0,-5.023 L 20.292,129.511 C 19.463,128.133 17.467,127 15.86,127 l -6.788,0 z"
       id="path4617"
       style="fill:#4575b4"
       inkscape:connector-curvature="0" /></g><text
     xml:space="preserve"
     style="font-style:normal;font-variant:normal;font-weight:900;font-stretch:normal;font-size:27.5px;line-height:89.99999762%;font-family:Roboto;-inkscape-font-specification:'Roboto, Heavy';text-align:start;letter-spacing:0px;word-spacing:0px;writing-mode:lr-tb;text-anchor:start;fill:#4d4d4d;fill-opacity:1;stroke:none;stroke-width:1px;stroke-linecap:butt;stroke-linejoin:miter;stroke-opacity:1"
     x="47.492657"
     y="28.389965"
     id="text5715"
     sodipodi:linespacing="89.999998%"><tspan
       sodipodi:role="line"
       id="tspan5727"
       x="47.492657"
       y="28.389965">Gene</tspan><tspan
       sodipodi:role="line"
       id="tspan5729"
       x="47.492657"
       y="53.139965"><tspan
   style="font-style:normal;font-variant:normal;font-weight:900;font-stretch:normal;font-size:22.5px;line-height:89.99999762%;font-family:Roboto;-inkscape-font-specification:'Roboto, Heavy';text-align:start;writing-mode:lr-tb;text-anchor:start"
   id="tspan5739">Variation </tspan>3D</tspan></text>
<text
     sodipodi:linespacing="89.999998%"
     id="text5741"
     y="92.786072"
     x="48.408241"
     style="font-style:normal;font-variant:normal;font-weight:900;font-stretch:normal;font-size:27.5px;line-height:89.99999762%;font-family:Roboto;-inkscape-font-specification:'Roboto, Heavy';text-align:start;letter-spacing:0px;word-spacing:0px;writing-mode:lr-tb;text-anchor:start;fill:#4d4d4d;fill-opacity:1;stroke:none;stroke-width:1px;stroke-linecap:butt;stroke-linejoin:miter;stroke-opacity:1"
     xml:space="preserve"><tspan
       y="92.786072"
       x="48.408241"
       id="tspan5743"
       sodipodi:role="line">Gene</tspan><tspan
       y="117.53607"
       x="48.408241"
       id="tspan5745"
       sodipodi:role="line"><tspan
   id="tspan5747"
   style="font-style:normal;font-variant:normal;font-weight:900;font-stretch:normal;font-size:22.5px;line-height:89.99999762%;font-family:Roboto;-inkscape-font-specification:'Roboto, Heavy';text-align:start;writing-mode:lr-tb;text-anchor:start">Variation </tspan>3D</tspan></text>
<text
     xml:space="preserve"
     style="font-style:normal;font-variant:normal;font-weight:900;font-stretch:normal;font-size:27.5px;line-height:89.99999762%;font-family:Roboto;-inkscape-font-specification:'Roboto, Heavy';text-align:start;letter-spacing:0px;word-spacing:0px;writing-mode:lr-tb;text-anchor:start;fill:#cccccc;fill-opacity:1;stroke:none;stroke-width:1px;stroke-linecap:butt;stroke-linejoin:miter;stroke-opacity:1;"
     x="47.797852"
     y="155.35101"
     id="text5749"
     sodipodi:linespacing="89.999998%"><tspan
       sodipodi:role="line"
       id="tspan5751"
       x="47.797852"
       y="155.35101">Gene</tspan><tspan
       sodipodi:role="line"
       id="tspan5753"
       x="47.797852"
       y="180.10101"><tspan
   style="font-style:normal;font-variant:normal;font-weight:900;font-stretch:normal;font-size:22.5px;line-height:89.99999762%;font-family:Roboto;-inkscape-font-specification:'Roboto, Heavy';text-align:start;writing-mode:lr-tb;text-anchor:start;fill:#cccccc;"
   id="tspan5755">Variation </tspan>3D</tspan></text>
</svg>