<?xml version="1.0" encoding="UTF-8" standalone="no"?>
<!-- Generator: Adobe Illustrator 17.0.1, SVG Export Plug-In . SVG Version: 6.00 Build 0)  -->

<svg
   xmlns:osb="http://www.openswatchbook.org/uri/2009/osb"
   xmlns:dc="http://purl.org/dc/elements/1.1/"
   xmlns:cc="http://creativecommons.org/ns#"
   xmlns:rdf="http://www.w3.org/1999/02/22-rdf-syntax-ns#"
   xmlns:svg="http://www.w3.org/2000/svg"
   xmlns="http://www.w3.org/2000/svg"
   xmlns:sodipodi="http://sodipodi.sourceforge.net/DTD/sodipodi-0.dtd"
   xmlns:inkscape="http://www.inkscape.org/namespaces/inkscape"
   version="1.1"
   id="Layer_1"
   x="0px"
   y="0px"
   width="1200"
   height="630"
   viewBox="0 0 1200 630"
   enable-background="new 0 0 185 188"
   xml:space="preserve"
   inkscape:version="0.91 r13725"
   sodipodi:docname="sharing-facebook.svg"
   inkscape:export-filename="/Users/andreas/WORK/GIT/genevariation3d/img/seo/sharing-facebook.png"
   inkscape:export-xdpi="160"
   inkscape:export-ydpi="160"><metadata
     id="metadata4623"><rdf:RDF><cc:Work
         rdf:about=""><dc:format>image/svg+xml</dc:format><dc:type
           rdf:resource="http://purl.org/dc/dcmitype/StillImage" /><dc:title></dc:title></cc:Work></rdf:RDF></metadata><defs
     id="defs4621"><linearGradient
       id="linearGradient5709"
       osb:paint="solid"><stop
         style="stop-color:#000000;stop-opacity:1;"
         offset="0"
         id="stop5711" /></linearGradient><linearGradient
       id="linearGradient4258"
       osb:paint="solid"><stop
         style="stop-color:#000000;stop-opacity:1;"
         offset="0"
         id="stop4260" /></linearGradient></defs><sodipodi:namedview
     pagecolor="#ffffff"
     bordercolor="#666666"
     borderopacity="1"
     objecttolerance="10"
     gridtolerance="10"
     guidetolerance="10"
     inkscape:pageopacity="0"
     inkscape:pageshadow="2"
     inkscape:window-width="1440"
     inkscape:window-height="815"
     id="namedview4619"
     showgrid="false"
     inkscape:zoom="0.6925"
     inkscape:cx="600"
     inkscape:cy="315"
     inkscape:window-x="34"
     inkscape:window-y="0"
     inkscape:window-maximized="0"
     inkscape:current-layer="Layer_1" /><g
     id="g4391"
     transform="matrix(0,6.2155628,-4.3502214,0,321.77276,175.92717)"><g
       id="g4409" /><radialGradient
       id="SVGID_1_"
       cx="-310.58301"
       cy="-60.055"
       r="20.113701"
       gradientTransform="matrix(0.498,0,0,0.498,172.2891,79.7388)"
       gradientUnits="userSpaceOnUse"><stop
         offset="0"
         style="stop-color:#FFCF4F"
         id="stop4440" /><stop
         offset="1"
         style="stop-color:#F4C236"
         id="stop4442" /></radialGradient><path
       d="m 8.91,61 6.791,0 c 1.607,0 3.604,-1.128 4.432,-2.511 l 5.72,-9.519 c 0.677,-1.396 0.653,-3.426 -0.119,-4.713 L 22.356,38.665 8.91,61 Z"
       id="path4444"
       style="fill:#abd9e9"
       inkscape:connector-curvature="0" /><radialGradient
       id="SVGID_2_"
       cx="-322.6347"
       cy="-70.269501"
       r="27.658199"
       gradientTransform="matrix(0.498,0,0,0.498,172.2891,79.7388)"
       gradientUnits="userSpaceOnUse"><stop
         offset="0"
         style="stop-color:#08A960"
         id="stop4447" /><stop
         offset="1"
         style="stop-color:#07914B"
         id="stop4449" /></radialGradient><path
       d="M 16.209,33.514 1.108,58.763 C 0.524,60.011 1.131,61 2.629,61 L 8.91,61 22.356,38.665 16.21,28.492 c 0.829,1.378 0.829,3.638 -0.001,5.022"
       id="path4451"
       style="fill:#fdae61;stroke:none;stroke-opacity:1"
       inkscape:connector-curvature="0" /><radialGradient
       id="SVGID_3_"
       cx="-313.18311"
       cy="-109.9511"
       r="40.540001"
       gradientTransform="matrix(0.498,0,0,0.498,172.2891,79.7388)"
       gradientUnits="userSpaceOnUse"><stop
         offset="0"
         style="stop-color:#567FC0"
         id="stop4454" /><stop
         offset="1"
         style="stop-color:#557FC0"
         id="stop4456" /></radialGradient><path
       d="M 2.629,1 C 1.015,1 0.375,2.133 1.205,3.511 l 24.529,40.745 c 0.772,1.288 0.795,3.317 0.119,4.713 L 31.816,39.044 8.914,1 2.629,1 Z"
       id="path4458"
       style="fill:#d73027"
       inkscape:connector-curvature="0" /><radialGradient
       id="SVGID_4_"
       cx="-301.11911"
       cy="-119.9164"
       r="33.058399"
       gradientTransform="matrix(0.498,0,0,0.498,172.2891,79.7388)"
       gradientUnits="userSpaceOnUse"><stop
         offset="0"
         style="stop-color:#E14C40"
         id="stop4461" /><stop
         offset="1"
         style="stop-color:#CD392D"
         id="stop4463" /></radialGradient><path
       d="m 8.914,1 22.903,38.045 3.321,-5.53 c 0.83,-1.385 0.83,-3.645 0,-5.023 L 20.133,3.511 C 19.305,2.133 17.308,1 15.701,1 L 8.914,1 Z"
       id="path4465"
       style="fill:#4575b4"
       inkscape:connector-curvature="0" /></g><g
     style="font-style:normal;font-variant:normal;font-weight:900;font-stretch:normal;font-size:27.5px;line-height:89.99999762%;font-family:Roboto;-inkscape-font-specification:'Roboto, Heavy';text-align:start;letter-spacing:0px;word-spacing:0px;writing-mode:lr-tb;text-anchor:start;fill:#4d4d4d;fill-opacity:1;stroke:none;stroke-width:1px;stroke-linecap:butt;stroke-linejoin:miter;stroke-opacity:1"
     id="text5715"
     transform="matrix(6.2155628,0,0,6.2155628,43.762102,100.78954)"><path
       d="m 64.975567,25.972973 q -1.087647,1.208496 -3.182373,1.947021 -2.094727,0.738526 -4.592285,0.738526 -3.840332,0 -6.136475,-2.349854 -2.296143,-2.349853 -2.457275,-6.539306 l -0.01343,-1.691895 q 0,-2.886963 1.020508,-5.0354 1.020508,-2.161866 2.913818,-3.3166507 1.906738,-1.1682129 4.404297,-1.1682129 3.652344,0 5.666504,1.6784666 2.027588,1.665039 2.363281,4.98169 l -4.538574,0 Q 60.181864,13.579174 59.3762,12.880932 58.570536,12.18269 57.093485,12.18269 q -1.772461,0 -2.739258,1.503906 -0.966797,1.503906 -0.980225,4.296875 l 0,1.181641 q 0,2.927246 0.993653,4.404296 1.00708,1.463623 3.155517,1.463623 1.8396,0 2.739258,-0.819091 l 0,-3.034668 -3.276367,0 0,-3.236084 7.989502,0 0,8.029785 z"
       id="path4219"
       inkscape:connector-curvature="0" /><path
       d="m 74.589825,28.65852 q -3.343506,0 -5.411377,-1.987305 -2.067871,-2.000732 -2.067871,-5.196533 l 0,-0.375977 q 0,-2.229004 0.819091,-3.934326 0.83252,-1.705322 2.416993,-2.631836 1.584472,-0.939941 3.759765,-0.939941 3.061524,0 4.833985,1.906738 1.772461,1.893311 1.772461,5.290527 l 0,1.759034 -8.996582,0 q 0.241699,1.221923 1.060791,1.920166 0.819091,0.698242 2.121582,0.698242 2.148437,0 3.356933,-1.503906 l 2.067871,2.443847 q -0.845947,1.168213 -2.403564,1.866455 -1.54419,0.684815 -3.330078,0.684815 z M 74.079571,17.083813 q -1.987305,0 -2.363281,2.631836 l 4.565429,0 0,-0.349121 q 0.02686,-1.087647 -0.550537,-1.678467 -0.577392,-0.604248 -1.651611,-0.604248 z"
       id="path4221"
       inkscape:connector-curvature="0" /><path
       d="m 86.64793,13.861156 0.147705,1.705323 q 1.503906,-1.973877 4.14917,-1.973877 2.269287,0 3.383789,1.356201 1.12793,1.356201 1.168213,4.082031 l 0,9.359131 -4.538574,0 0,-9.171143 q 0,-1.101074 -0.443115,-1.611328 -0.443116,-0.523681 -1.611328,-0.523681 -1.329346,0 -1.973877,1.047363 l 0,10.258789 -4.525147,0 0,-14.528809 4.243164,0 z"
       id="path4223"
       inkscape:connector-curvature="0" /><path
       d="m 105.04393,28.65852 q -3.34351,0 -5.411381,-1.987305 -2.067871,-2.000732 -2.067871,-5.196533 l 0,-0.375977 q 0,-2.229004 0.819092,-3.934326 0.83252,-1.705322 2.41699,-2.631836 1.58447,-0.939941 3.75977,-0.939941 3.06152,0 4.83398,1.906738 1.77246,1.893311 1.77246,5.290527 l 0,1.759034 -8.99658,0 q 0.2417,1.221923 1.06079,1.920166 0.81909,0.698242 2.12158,0.698242 2.14844,0 3.35694,-1.503906 l 2.06787,2.443847 q -0.84595,1.168213 -2.40357,1.866455 -1.54419,0.684815 -3.33007,0.684815 z m -0.51026,-11.574707 q -1.9873,0 -2.36328,2.631836 l 4.56543,0 0,-0.349121 q 0.0269,-1.087647 -0.55054,-1.678467 -0.57739,-0.604248 -1.65161,-0.604248 z"
       id="path4225"
       inkscape:connector-curvature="0" /><path
       d="m 54.908428,48.789378 3.186035,-11.645507 4.306641,0 -5.383301,15.996093 -4.21875,0 -5.339355,-15.996093 4.273681,0 3.175049,11.645507 z"
       style="font-style:normal;font-variant:normal;font-weight:900;font-stretch:normal;font-size:22.5px;line-height:89.99999762%;font-family:Roboto;-inkscape-font-specification:'Roboto, Heavy';text-align:start;writing-mode:lr-tb;text-anchor:start"
       id="path4227"
       inkscape:connector-curvature="0" /><path
       d="m 69.597149,53.139964 q -0.197754,-0.362548 -0.351563,-1.065673 -1.021728,1.2854 -2.856445,1.2854 -1.680908,0 -2.856445,-1.010742 -1.175537,-1.021729 -1.175537,-2.559815 0,-1.933593 1.428222,-2.922363 1.428223,-0.988769 4.152832,-0.988769 l 1.142578,0 0,-0.626221 q 0,-1.636963 -1.417236,-1.636963 -1.318359,0 -1.318359,1.296387 l -3.702393,0 q 0,-1.724854 1.461182,-2.801514 1.472168,-1.07666 3.746338,-1.07666 2.27417,0 3.592529,1.109619 1.318359,1.109619 1.351318,3.043213 l 0,5.262451 q 0.02197,1.636963 0.505371,2.504883 l 0,0.186767 -3.702392,0 z m -2.318115,-2.416992 q 0.692138,0 1.142578,-0.296631 0.461426,-0.296631 0.659179,-0.670166 l 0,-1.900634 -1.07666,0 q -1.933593,0 -1.933593,1.735839 0,0.505372 0.340576,0.823975 0.340576,0.307617 0.86792,0.307617 z"
       style="font-style:normal;font-variant:normal;font-weight:900;font-stretch:normal;font-size:22.5px;line-height:89.99999762%;font-family:Roboto;-inkscape-font-specification:'Roboto, Heavy';text-align:start;writing-mode:lr-tb;text-anchor:start"
       id="path4229"
       inkscape:connector-curvature="0" /><path
       d="m 82.044659,44.603587 -1.219483,-0.08789 q -1.746826,0 -2.241211,1.098633 l 0,7.525634 -3.702392,0 0,-11.887207 3.471679,0 0.12085,1.5271 q 0.933838,-1.746826 2.60376,-1.746826 0.593262,0 1.032715,0.131836 l -0.06592,3.43872 z"
       style="font-style:normal;font-variant:normal;font-weight:900;font-stretch:normal;font-size:22.5px;line-height:89.99999762%;font-family:Roboto;-inkscape-font-specification:'Roboto, Heavy';text-align:start;writing-mode:lr-tb;text-anchor:start"
       id="path4231"
       inkscape:connector-curvature="0" /><path
       d="m 87.285137,53.139964 -3.713379,0 0,-11.887207 3.713379,0 0,11.887207 z M 83.352032,38.187572 q 0,-0.791016 0.571289,-1.296387 0.571289,-0.505371 1.483154,-0.505371 0.911865,0 1.483154,0.505371 0.571289,0.505371 0.571289,1.296387 0,0.791015 -0.571289,1.296387 -0.571289,0.505371 -1.483154,0.505371 -0.911865,0 -1.483154,-0.505371 -0.571289,-0.505372 -0.571289,-1.296387 z"
       style="font-style:normal;font-variant:normal;font-weight:900;font-stretch:normal;font-size:22.5px;line-height:89.99999762%;font-family:Roboto;-inkscape-font-specification:'Roboto, Heavy';text-align:start;writing-mode:lr-tb;text-anchor:start"
       id="path4233"
       inkscape:connector-curvature="0" /><path
       d="m 96.271954,53.139964 q -0.197754,-0.362548 -0.351563,-1.065673 -1.021728,1.2854 -2.856445,1.2854 -1.680908,0 -2.856446,-1.010742 -1.175537,-1.021729 -1.175537,-2.559815 0,-1.933593 1.428223,-2.922363 1.428223,-0.988769 4.152832,-0.988769 l 1.142578,0 0,-0.626221 q 0,-1.636963 -1.417236,-1.636963 -1.31836,0 -1.31836,1.296387 l -3.702392,0 q 0,-1.724854 1.461182,-2.801514 1.472167,-1.07666 3.746337,-1.07666 2.27417,0 3.59253,1.109619 1.318359,1.109619 1.351318,3.043213 l 0,5.262451 q 0.02197,1.636963 0.505371,2.504883 l 0,0.186767 -3.702392,0 z m -2.318116,-2.416992 q 0.692139,0 1.142578,-0.296631 0.461426,-0.296631 0.65918,-0.670166 l 0,-1.900634 -1.07666,0 q -1.933594,0 -1.933594,1.735839 0,0.505372 0.340576,0.823975 0.340577,0.307617 0.86792,0.307617 z"
       style="font-style:normal;font-variant:normal;font-weight:900;font-stretch:normal;font-size:22.5px;line-height:89.99999762%;font-family:Roboto;-inkscape-font-specification:'Roboto, Heavy';text-align:start;writing-mode:lr-tb;text-anchor:start"
       id="path4235"
       inkscape:connector-curvature="0" /><path
       d="m 105.84105,38.297435 0,2.955322 1.95556,0 0,2.570801 -1.95556,0 0,5.438233 q 0,0.670166 0.24169,0.933837 0.2417,0.263672 0.95582,0.263672 0.54931,0 0.92285,-0.06592 l 0,2.647705 q -0.99976,0.318604 -2.08741,0.318604 -1.91162,0 -2.82348,-0.900879 -0.91187,-0.900879 -0.91187,-2.735596 l 0,-5.899658 -1.51611,0 0,-2.570801 1.51611,0 0,-2.955322 3.7024,0 z"
       style="font-style:normal;font-variant:normal;font-weight:900;font-stretch:normal;font-size:22.5px;line-height:89.99999762%;font-family:Roboto;-inkscape-font-specification:'Roboto, Heavy';text-align:start;writing-mode:lr-tb;text-anchor:start"
       id="path4237"
       inkscape:connector-curvature="0" /><path
       d="m 113.16893,53.139964 -3.71338,0 0,-11.887207 3.71338,0 0,11.887207 z m -3.93311,-14.952392 q 0,-0.791016 0.57129,-1.296387 0.57129,-0.505371 1.48315,-0.505371 0.91187,0 1.48316,0.505371 0.57129,0.505371 0.57129,1.296387 0,0.791015 -0.57129,1.296387 -0.57129,0.505371 -1.48316,0.505371 -0.91186,0 -1.48315,-0.505371 -0.57129,-0.505372 -0.57129,-1.296387 z"
       style="font-style:normal;font-variant:normal;font-weight:900;font-stretch:normal;font-size:22.5px;line-height:89.99999762%;font-family:Roboto;-inkscape-font-specification:'Roboto, Heavy';text-align:start;writing-mode:lr-tb;text-anchor:start"
       id="path4239"
       inkscape:connector-curvature="0" /><path
       d="m 114.99266,47.086498 q 0,-1.779786 0.69214,-3.164063 0.69213,-1.395264 1.98852,-2.142334 1.29639,-0.74707 3.04321,-0.74707 2.66968,0 4.20777,1.658935 1.53808,1.64795 1.53808,4.493409 l 0,0.131835 q 0,2.779542 -1.54907,4.416504 -1.53808,1.625977 -4.1748,1.625977 -2.53785,0 -4.07593,-1.516113 -1.53809,-1.5271 -1.65894,-4.13086 l -0.011,-0.62622 z m 3.70239,0.230712 q 0,1.64795 0.51636,2.416993 0.51635,0.769043 1.5271,0.769043 1.97754,0 2.02148,-3.043213 l 0,-0.373535 q 0,-3.197022 -2.04346,-3.197022 -1.85669,0 -2.01049,2.757568 l -0.011,0.670166 z"
       style="font-style:normal;font-variant:normal;font-weight:900;font-stretch:normal;font-size:22.5px;line-height:89.99999762%;font-family:Roboto;-inkscape-font-specification:'Roboto, Heavy';text-align:start;writing-mode:lr-tb;text-anchor:start"
       id="path4241"
       inkscape:connector-curvature="0" /><path
       d="m 131.47215,41.252757 0.12085,1.395264 q 1.23047,-1.61499 3.39477,-1.61499 1.85669,0 2.76856,1.109619 0.92285,1.109619 0.95581,3.339844 l 0,7.65747 -3.71338,0 0,-7.503662 q 0,-0.900879 -0.36255,-1.318359 -0.36255,-0.428467 -1.31836,-0.428467 -1.08764,0 -1.61499,0.856934 l 0,8.393554 -3.70239,0 0,-11.887207 3.47168,0 z"
       style="font-style:normal;font-variant:normal;font-weight:900;font-stretch:normal;font-size:22.5px;line-height:89.99999762%;font-family:Roboto;-inkscape-font-specification:'Roboto, Heavy';text-align:start;writing-mode:lr-tb;text-anchor:start"
       id="path4243"
       inkscape:connector-curvature="0" /><path
       d="m 150.68968,41.471263 2.13501,0 q 2.53784,0 2.53784,-2.484131 0,-0.966797 -0.60425,-1.571045 -0.60425,-0.617675 -1.70532,-0.617675 -0.89966,0 -1.57105,0.523681 -0.65795,0.523682 -0.65795,1.302491 l -4.52515,0 q 0,-1.54419 0.85937,-2.752686 0.85938,-1.208496 2.37671,-1.879883 1.53076,-0.684814 3.35694,-0.684814 3.26294,0 5.12939,1.490478 1.86646,1.490479 1.86646,4.095459 0,1.262207 -0.77881,2.390137 -0.76538,1.114502 -2.24243,1.812744 1.55761,0.563965 2.44384,1.71875 0.88623,1.141358 0.88623,2.833252 0,2.618408 -2.01416,4.189453 -2.01416,1.571045 -5.29052,1.571045 -1.92017,0 -3.57178,-0.725098 -1.63818,-0.738525 -2.48413,-2.027587 -0.84595,-1.302491 -0.84595,-2.954102 l 4.552,0 q 0,0.899658 0.7251,1.557617 0.7251,0.657959 1.78589,0.657959 1.19507,0 1.90674,-0.657959 0.71167,-0.671387 0.71167,-1.705322 0,-1.477051 -0.73853,-2.094727 -0.73852,-0.617675 -2.04101,-0.617675 l -2.20215,0 0,-3.370362 z"
       id="path4245"
       inkscape:connector-curvature="0" /><path
       d="m 162.78807,53.139964 0,-19.550781 6.2976,0 q 2.59156,0 4.65943,1.181641 2.06787,1.168213 3.22265,3.31665 1.16822,2.13501 1.18164,4.793701 l 0,0.899659 q 0,2.685546 -1.14135,4.820556 -1.12793,2.121582 -3.1958,3.330078 -2.05445,1.195069 -4.59229,1.208496 l -6.43188,0 z m 4.71313,-15.911865 0,12.286377 1.63819,0 q 2.02758,0 3.11523,-1.436767 1.08765,-1.450196 1.08765,-4.296875 l 0,-0.845948 q 0,-2.833252 -1.08765,-4.270019 -1.08765,-1.436768 -3.16895,-1.436768 l -1.58447,0 z"
       id="path4247"
       inkscape:connector-curvature="0" /></g></svg>